+8_ID_stride2.mot
nRows=5
nColumns=38

name +8_ID_stride2.mot
datacolumns 38
datarows 5
range 0.2600000000 0.2800000000
endheader
time	pelvis_tilt_moment	pelvis_list_moment	pelvis_rotation_moment	pelvis_tx_force	pelvis_ty_force	pelvis_tz_force	hip_flexion_r_moment	hip_adduction_r_moment	hip_rotation_r_moment	knee_angle_r_moment	ankle_angle_r_moment	subtalar_angle_r_moment	mtp_angle_r_moment	hip_flexion_l_moment	hip_adduction_l_moment	hip_rotation_l_moment	knee_angle_l_moment	ankle_angle_l_moment	subtalar_angle_l_moment	mtp_angle_l_moment	lumbar_extension_moment	lumbar_bending_moment	lumbar_rotation_moment	arm_flex_r_moment	arm_add_r_moment	arm_rot_r_moment	elbow_flex_r_moment	pro_sup_r_moment	wrist_flex_r_moment	wrist_dev_r_moment	arm_flex_l_moment	arm_add_l_moment	arm_rot_l_moment	elbow_flex_l_moment	pro_sup_l_moment	wrist_flex_l_moment	wrist_dev_l_moment
        0.2600000000	      -36.5382722189	       80.4891637862	       23.6872676327	       62.9909611328	      396.4787213463	      143.6415686946	       73.4712950796	      -20.1822723076	        4.6862938394	       23.1876290225	        4.4291294947	       -0.9092042732	        0.2168739011	      -42.6413511052	      -20.4046928371	       -7.9101331439	      -16.4397160110	       15.1411163368	       -8.1792784327	        0.1551815188	       67.0852297772	       42.5494802224	       -9.1554494716	       -4.2040806070	       -0.6332911416	       -0.4102503665	        1.9238564718	       -0.0597854728	       -0.0026096314	       -0.1895105819	       -2.2178527721	        2.2661988569	        1.7931501027	        2.3499372815	        0.0155415342	        0.2388405621	       -0.1668893184	
        0.2650000000	      -46.3909595495	       98.1801639017	       34.9466294925	       63.2315064660	      427.9929384771	      107.6579784431	       71.0150031907	      -19.0585820440	        5.0685787351	       22.2416926637	        4.6815885676	       -0.9287609956	        0.2458881054	      -32.5151107965	      -38.2874287575	      -11.3850106972	       -1.1780283362	       15.8969750804	       -8.7147912253	        0.2383506827	       74.9771571782	       45.8812926238	       -4.7688151771	       -4.2685303727	       -0.1815657455	        0.0845882473	        2.5801036762	       -0.0574292584	        0.0648853156	       -0.2286476101	       -3.1213489714	        2.1352719840	        1.5625681139	        2.9507729261	       -0.0056910954	        0.2213529107	       -0.2205528306	
        0.2700000000	      -51.5775515141	      105.4690748030	       43.2862980474	       37.0678670816	      366.5483529682	       41.6504497577	       71.7521903264	      -16.1354801752	        5.1105864724	       21.9659197783	        4.8671460040	       -0.9295383363	        0.2656971038	      -32.6780324849	      -56.6736480770	      -14.0136251294	       11.9763574607	       11.1978209680	       -7.3895345134	        0.3062604648	       76.1773427847	       45.5512305863	       -1.1449259178	       -3.7272393306	        0.2801946931	        0.4803195582	        3.0735353090	       -0.0553097543	        0.1166262922	       -0.2565353546	       -3.3880882170	        1.8949606741	        1.2567743670	        3.3854192851	       -0.0254768398	        0.1945432853	       -0.2619116483	
        0.2750000000	      -47.0299722722	       87.4124760436	       48.7788240616	       -6.0550355118	      216.2849582671	      -23.0137459571	       74.8873683327	      -11.8772945337	        4.6719757082	       22.7064641088	        4.9553662710	       -0.8938515702	        0.2747615023	      -55.4416393296	      -70.4732164946	      -17.2640757093	       18.6754041941	        1.3696594732	       -5.3058959275	        0.3514172481	       67.7136488571	       39.6032911397	        1.6866040065	       -2.8421698535	        0.7990362598	        0.8130662107	        3.2566920425	       -0.0491396250	        0.1523211374	       -0.2581056540	       -3.0608790762	        1.4234474538	        0.8406159118	        3.5022864912	       -0.0418523686	        0.1530696732	       -0.2784520920	
        0.2800000000	      -33.4592877707	       48.6257347853	       52.4224074437	      -58.1382398884	       16.7272542877	      -57.3896138946	       78.0878610751	       -6.5801675395	        3.8308656775	       24.1507607761	        4.9187383262	       -0.8220218774	        0.2723661292	      -94.2817868722	      -74.1505679628	      -22.8557349747	       19.3159655244	      -12.3825969680	       -4.7674908074	        0.3591404799	       53.0533988512	       29.6798816823	        3.8523914918	       -1.8642995397	        1.3942952786	        1.1334469350	        3.1407473950	       -0.0380068941	        0.1769091110	       -0.2390974567	       -2.5024366301	        0.7167441511	        0.3330791919	        3.3446317547	       -0.0542171194	        0.0992301038	       -0.2696063074	
